<?xml version="1.0" encoding="UTF-8"?><svg id="Layer_2" xmlns="http://www.w3.org/2000/svg" viewBox="0 0 706.57 279.29"><g id="Layer_1-2"><path d="M458.97,77.65c-14.77-9.51-38.16-1.22-42.11,16.19-3.8,16.71,7.62,33.8,24.42,36.86,20.95,3.81,40.92-12.19,51-29.24,4.85-8.2,7.62-17.72,6.06-27.25-1.61-9.88-7.64-18.43-14.5-25.44-27.24-27.82-84.15-53.08-109.82-9.86-6.17,10.39-9.48,22.33-11.53,34.15s-3.94,23.71-3.12,35.4c1.56,22.26,17.85,35.97,36.82,45.03,11.95,5.71,24.73,9.97,37.57,13.16,13.6,3.38,27.07,4.15,40.52-.27,11.38-3.74,22.96-9.11,33.14-15.42,7.9-4.89,15.87-11.41,16.98-21.21.22-1.92-2.79-1.9-3,0-1,8.83-9.11,14.74-16.14,19.01-8.24,5.02-17.28,9.13-26.23,12.69-9.98,3.97-20.19,5.94-30.94,4.81s-21.17-4.35-31.3-7.76c-17.19-5.79-36.88-13.89-47.59-29.38-5.91-8.55-7.32-18.79-6.9-28.95s1.87-20.69,3.91-30.75c3.66-18.05,11.23-38.11,28.87-46.7,19.2-9.35,41.82-2.4,59.3,7.55,15.68,8.92,34.69,22.34,40.1,40.53,5.75,19.33-8.68,39.07-23.88,49.57-9.04,6.25-20.47,9.86-31.36,6.78-8.9-2.51-16-9.48-18.8-18.28-3.19-10.03-.55-21.87,8.71-27.72,8.03-5.07,20.15-6.16,28.3-.91,1.63,1.05,3.13-1.55,1.51-2.59h0Z"/><path d="M68.5,227.85C35.96,193.17,11.77,150.06,5.03,102.55c-2.46-17.36-6.51-44.2,10.65-55.73,9.93-6.68,23.41-6.15,34.26-2.17,11.42,4.19,20.21,13.1,26.39,23.37,4.67,7.75,7.88,17,7.06,26.15-.92,10.35-8.45,20.22-18.66,23.11-1.97.56-5.17.67-6.97-.77-2.93-2.35.29-5.51,2.23-6.78,2.55-1.67,5.69-2.58,8.58-3.49,5.97-1.88,12.06-3.37,18.21-4.5,12.5-2.31,25.26-3.15,37.96-2.66,23.82.93,47.72,6.72,68.48,18.67,9.31,5.36,17.95,11.94,25.2,19.9,7.6,8.35,15.32,19.61,15.51,31.28.23,14.06-12.44,24.64-23.02,31.93-10,6.89-21.09,12.13-32.58,16.01-24.61,8.32-51.1,10.78-76.86,7.55-1.91-.24-1.89,2.76,0,3,26.74,3.36,54.45.61,79.87-8.43,11.59-4.12,22.81-9.57,32.82-16.77,9.03-6.49,18.97-14.97,21.92-26.18,3.22-12.24-3.3-24.84-10.48-34.38-6.82-9.07-15.47-16.64-24.94-22.85-22.93-15.03-50.48-22-77.69-22.79-14.38-.42-28.86.89-42.9,4.03-6.32,1.42-12.93,2.98-18.85,5.67-3.55,1.61-7.82,4.32-7.52,8.76.79,11.69,17.03,3.94,21.74.22,7.41-5.85,11.24-14.67,11.05-24.05-.45-21.77-18.15-43.89-38.8-49.88-11.11-3.22-24.3-3.03-34.08,3.82-7.8,5.47-11.7,14.33-12.94,23.55-1.52,11.27-.21,23.23,1.35,34.43,1.86,13.41,5.11,26.62,9.58,39.4,9.06,25.9,23.01,49.89,40.17,71.25,4.64,5.78,9.54,11.35,14.61,16.75,1.32,1.41,3.44-.71,2.12-2.12h0Z"/><path d="M151.54,70.96c-2.22-17.44-2.29-37.26,3.53-54.07C161.11-.52,183.46-.11,196.03,10.01c12.81,10.31,18.56,30.2,20.5,45.85,1.83,14.79,2.11,34.7-12.67,43.01l2.2.9c-7.39-19.66,10.5-35.92,26.56-43.64,9.15-4.4,19.04-7.23,29-9.12,10.59-2.01,21.93-3.39,32.6-1.13,39,8.26,25.95,58.6,14.69,83.9-9,20.24-22.38,38.14-38.17,53.58-1.38,1.35.74,3.47,2.12,2.12,15.76-15.42,29.21-33.3,38.31-53.46,7.55-16.71,13.75-36.77,12.18-55.34-1.33-15.72-10.26-28.73-25.85-33.08-10.49-2.93-21.71-1.94-32.32-.25-11.19,1.78-22.28,4.74-32.6,9.48-17.74,8.15-37.53,26.16-29.42,47.73.34.91,1.3,1.41,2.2.9,11.36-6.39,14.23-18.19,14.76-30.39.71-16.37-3.04-32.77-10.27-47.44-5.9-11.99-15.28-21.16-28.9-23.22-11.81-1.79-23.46,2.33-28.12,13.93-3.13,7.79-4.14,16.7-4.92,25-.99,10.55-.72,21.12.62,31.63.24,1.89,3.24,1.91,3,0h0Z"/><path d="M557.07,189.01c-.1-24.83-.2-49.66-.3-74.49l-.15-36.75c-.04-10.34-1.28-22.27,4.22-31.55,11.91-20.08,42.03-14.28,58.04-3.56,17.18,11.51,30.86,31.33,30.64,52.56-.23,22.77-17.59,41.24-38.28,48.44-1.38.48-1.46,2.44,0,2.89,26.92,8.27,52.23,22.53,71.8,42.96,9.07,9.47,23.93,25.14,19.94,39.43-2.14,7.66-9.89,12.88-16.08,17.12-5.57,3.83-11.41,7.27-17.43,10.34-50.7,25.86-114.23,26.81-165.27,1.46-25.93-12.88-48.98-32.45-62.95-58.08-.92-1.7-3.52-.18-2.59,1.51,27.6,50.6,87.34,77.3,143.21,77.97,30.15.36,60.68-6.1,87.71-19.56,6.52-3.25,12.83-6.92,18.84-11.05,5.66-3.89,11.82-8.18,15.38-14.21,7.57-12.79-1.93-26.85-9.8-36.88-20.58-26.24-50.34-44.21-81.96-53.92v2.89c18.59-6.47,34.72-21.26,39.25-40.92,4.94-21.45-5.56-43.16-21.01-57.67-15.3-14.38-38.12-23.4-58.55-14.65-22.66,9.71-18.13,37.28-18.05,57.36.13,32.78.27,65.55.4,98.33,0,1.93,3.01,1.93,3,0h0Z"/></g></svg>