<?xml version="1.0" encoding="UTF-8"?><svg id="Layer_2" xmlns="http://www.w3.org/2000/svg" viewBox="0 0 148.84 123.7"><defs><style>.cls-1{fill:#231f20;}</style></defs><g id="Layer_1-2"><path class="cls-1" d="M137.46,15.87c-13.45-6.66-27.74-11.43-42.6-13.68-13.46-2.04-29.21-4.32-40.94,4.15-12.62,9.11-24.07,20.29-35.88,30.4C8.01,45.33-3.46,54.51.99,69.34c4.01,13.38,16.83,19.71,28.63,24.99,14.46,6.47,29.23,12.27,44.26,17.29,7.42,2.48,14.89,4.77,22.43,6.87,6.79,1.9,14.63,5.07,21.72,5.22s9.8-5.78,12.31-11.33c2.98-6.6,5.51-13.4,7.55-20.35,4.64-15.79,6.95-32.16,8.74-48.48,1.44-13.12,6.12-31.54-4.85-41.87-5.62-5.29-14.12,3.18-8.49,8.49,3.46,3.26,3.5,7.9,3.32,12.37-.24,6.12-1.06,12.27-1.71,18.36-1.25,11.8-2.8,23.57-5.34,35.16-1.25,5.72-2.74,11.39-4.54,16.96-.9,2.78-1.87,5.53-2.93,8.25s-2.38,7.7-4.39,9.8c-2.25,2.36-.03.52-.02.52-1.08.32-4.35-1.05-5.47-1.33-3.03-.76-6.06-1.54-9.08-2.36-6.34-1.72-12.64-3.57-18.91-5.55-12.23-3.87-24.29-8.24-36.16-13.1-10.27-4.2-23.32-8.22-31.28-16.32-3.04-3.09-5.56-7.73-4.61-12.21,1.17-5.54,7.37-9.52,11.39-12.96,10.17-8.71,20.35-17.42,30.52-26.13,4.93-4.22,9.47-8.47,16.2-9.11s13.81.16,20.41,1.08c14.15,1.96,27.93,6.28,40.73,12.61,6.9,3.41,12.99-6.93,6.06-10.36h0Z"/><path class="cls-1" d="M78.49,42.79c8.94,14.36,20.25,26.62,33.64,36.92,2.59,1.99,6.69.38,8.21-2.15,1.84-3.07.4-6.24-2.15-8.21-11.68-8.99-21.55-20.12-29.33-32.62-4.07-6.54-14.46-.52-10.36,6.06h0Z"/><path class="cls-1" d="M116.02,35.95c-10.2-.56-20.66,9.41-28,15.58-8.31,6.98-15.57,14.94-22.15,23.56-4.69,6.14,5.73,12.12,10.36,6.06,5.26-6.88,11.25-13.22,17.75-18.95,3.17-2.79,6.45-5.43,9.89-7.88s7.9-6.59,12.15-6.36c7.72.42,7.69-11.58,0-12h0Z"/></g></svg>