<?xml version="1.0" encoding="UTF-8"?><svg id="Layer_2" xmlns="http://www.w3.org/2000/svg" viewBox="0 0 187.88 174.31"><defs><style>.cls-1{fill:#366c94;}</style></defs><g id="Layer_1-2"><path class="cls-1" d="M114.28,61.89c-15.23-3.51-30.75-4.46-42.67,7.38-9.19,9.13-12.77,22.41-10.7,35,2.36,14.37,14.18,25.27,27.89,29.03,14.45,3.97,29.83.35,42.12-7.86,23.4-15.63,37.74-45.76,24.88-72.68-10.71-22.41-35.24-38.94-57.81-47.36C74.2-3.48,45.86-2.44,27.01,16.31,11.04,32.19,1.08,56.97.08,79.29c-1.81,40.32,27.38,73.32,63.18,87.59,37.92,15.12,82.46,6.9,111.21-22.45,4.28-4.37,8.08-9.18,11.67-14.12,3.81-5.25.89-13.38-4.31-16.42-6.07-3.55-12.6-.95-16.42,4.31-1.7,2.33-4.67,5.94-7.92,9.26-1.57,1.6-3.19,3.14-4.86,4.62-.55.48-1.1.96-1.66,1.43-.56.47-1.12.93-1.68,1.38,1.01-.76.97-.73-.13.1-3.38,2.5-6.94,4.77-10.64,6.76-1.51.81-3.04,1.57-4.59,2.29-.36.16-3.49,1.44-.86.41-1.25.5-2.5.98-3.77,1.43-3.45,1.21-6.98,2.2-10.55,2.97-1.93.42-3.88.75-5.83,1.05,3.06-.47-.21.01-.72.05-1.3.11-2.6.24-3.91.31-3.58.21-7.17.21-10.75,0-1.95-.11-3.88-.33-5.82-.51-3.24-.31,2.53.54-.66-.11-1.27-.26-2.55-.43-3.82-.69-3.48-.7-6.92-1.58-10.31-2.64-1.84-.58-3.66-1.21-5.47-1.89-.9-.34-1.79-.7-2.68-1.06,1.93.78.33.14-.66-.32-3.46-1.62-6.85-3.37-10.12-5.36-1.49-.9-2.95-1.85-4.38-2.83-.65-.44-1.29-.91-1.93-1.36-.51-.37-1.02-.74-1.52-1.12,1.18.92,1.25.97.2.15-2.86-2.42-5.68-4.84-8.29-7.54-1.08-1.11-2.12-2.25-3.13-3.42-.61-.7-1.17-1.43-1.78-2.12-.83-1.04-.77-.96.17.25-.37-.49-.73-.98-1.09-1.48-1.92-2.77-3.76-5.58-5.36-8.55-.87-1.62-1.63-3.28-2.42-4.93-1.32-2.76.74,2.39-.2-.52-.37-1.17-.85-2.3-1.23-3.47-1.06-3.25-1.81-6.55-2.44-9.9-.11-.59-.38-3.69-.1-.53-.08-.95-.2-1.89-.26-2.83-.15-2.08-.2-4.17-.17-6.25.03-1.8.13-3.61.3-5.4.04-.48.52-3.78.05-.8.16-1.01.32-2.02.51-3.02.8-4.19,1.94-8.32,3.39-12.34.38-1.05.78-2.1,1.19-3.14-.92,2.3.54-1.2.61-1.35.99-2.16,2.07-4.29,3.22-6.38,2.44-4.45,5.14-8.91,8.27-12.92,2.07-2.66,4.78-5.07,7.79-6.94,1.02-.63,2.07-1.23,3.14-1.77.09-.04,3.63-1.53,1.48-.71,2.6-.99,5.27-1.61,7.98-2.21,6.77-1.51,16.62,0,25.38,2.79,4.92,1.57,7.4,2.62,11.63,4.76,4.68,2.37,9.19,5.09,13.48,8.11,3.49,2.46,6.51,4.97,10.27,8.65,1.59,1.55,3.12,3.16,4.58,4.82.65.74,1.28,1.48,1.9,2.24.89,1.11.97,1.2.24.29.45.6.88,1.21,1.31,1.82,3.39,4.73,4.93,7.43,5.91,12.93-.3-1.71.04.32.06.59.1,1.26.13,2.53.1,3.79-.06,2.64-.1,3.25-1.09,6.81-2.6,9.38-9.59,18.23-18.03,23.59s-19.32,8.48-28.31,2.06c.68.49-1.96-1.72-1.9-1.66-.93-1.08-1.05-1.15-.35-.2-.44-.61-.85-1.23-1.23-1.88-.18-.31-1.47-3.48-.66-1.12-.48-1.38-.86-2.78-1.1-4.21.53,3.19.39-5.49-.04-2.28.14-1.07.4-2.15.68-3.19.19-.7.41-1.39.65-2.07-.56,1.18-.54,1.14.06-.12.51-.95,1.07-1.87,1.6-2.81.79-1.13.81-1.18.04-.15.34-.41.7-.81,1.08-1.19.66-.6,1.25-1.26,1.95-1.82-1.92,1.55,1.59-.8,2.06-1.03-2.29,1.14.95-.2,1.24-.31,1.4-.27,1.46-.33.17-.16,1.17-.11,2.34-.16,3.51-.13,3.64.03,7.22,1.05,10.75,1.86,6.31,1.45,12.99-1.95,14.76-8.38,1.66-6.06-2.04-13.3-8.38-14.76h0Z"/></g></svg>